<svg width="1280" height="758" xmlns="http://www.w3.org/2000/svg"><g><path d="M-167.37221917603165,-110.05816953722388L-175.7661536964588,55.31140921404585L65.58161700842902,75.48861399292946Z" fill="#fffffe" stroke="#fffffe"></path><path d="M-167.37221917603165,-110.05816953722388L65.58161700842902,75.48861399292946L117.50179017428309,-167.662657010369Z" fill="#f6fcf4" stroke="#f6fcf4"></path><path d="M117.50179017428309,-167.662657010369L65.58161700842902,75.48861399292946L304.2060307832435,-95.73425058508292Z" fill="#e5f5e2" stroke="#e5f5e2"></path><path d="M117.50179017428309,-167.662657010369L304.2060307832435,-95.73425058508292L577.1045083645731,-145.39448185125366Z" fill="#d4eed1" stroke="#d4eed1"></path><path d="M117.50179017428309,-167.662657010369L577.1045083645731,-145.39448185125366L1605.7376781385392,-134.79562832973897Z" fill="#9dd2ac" stroke="#9dd2ac"></path><path d="M304.2060307832435,-95.73425058508292L65.58161700842902,75.48861399292946L430.7963635912165,173.58660937054083Z" fill="#d7f1d1" stroke="#d7f1d1"></path><path d="M304.2060307832435,-95.73425058508292L430.7963635912165,173.58660937054083L614.2569629475474,83.09560152003542Z" fill="#c1e7be" stroke="#c1e7be"></path><path d="M304.2060307832435,-95.73425058508292L614.2569629475474,83.09560152003542L577.1045083645731,-145.39448185125366Z" fill="#c0e5c0" stroke="#c0e5c0"></path><path d="M577.1045083645731,-145.39448185125366L614.2569629475474,83.09560152003542L880.1083006407134,-131.6153417271562Z" fill="#a6d8b1" stroke="#a6d8b1"></path><path d="M577.1045083645731,-145.39448185125366L880.1083006407134,-131.6153417271562L1605.7376781385392,-134.79562832973897Z" fill="#87b79d" stroke="#87b79d"></path><path d="M880.1083006407134,-131.6153417271562L614.2569629475474,83.09560152003542L901.5184458321892,122.92440976481885Z" fill="#99cfa7" stroke="#99cfa7"></path><path d="M880.1083006407134,-131.6153417271562L901.5184458321892,122.92440976481885L1107.4361048243009,-63.09892285382375Z" fill="#8dbfa0" stroke="#8dbfa0"></path><path d="M880.1083006407134,-131.6153417271562L1107.4361048243009,-63.09892285382375L1282.7076906734146,-106.60000276286155Z" fill="#80ae99" stroke="#80ae99"></path><path d="M880.1083006407134,-131.6153417271562L1282.7076906734146,-106.60000276286155L1605.7376781385392,-134.79562832973897Z" fill="#809790" stroke="#809790"></path><path d="M1107.4361048243009,-63.09892285382375L901.5184458321892,122.92440976481885L1126.7730786767788,106.54156029224396Z" fill="#80b495" stroke="#80b495"></path><path d="M1107.4361048243009,-63.09892285382375L1126.7730786767788,106.54156029224396L1282.7076906734146,-106.60000276286155Z" fill="#80a395" stroke="#80a395"></path><path d="M1282.7076906734146,-106.60000276286155L1126.7730786767788,106.54156029224396L1389.492306013126,192.80534851597622Z" fill="#7a9688" stroke="#7a9688"></path><path d="M1282.7076906734146,-106.60000276286155L1389.492306013126,192.80534851597622L1616.4765459042974,116.17105027427897Z" fill="#7a807f" stroke="#7a807f"></path><path d="M1282.7076906734146,-106.60000276286155L1616.4765459042974,116.17105027427897L1605.7376781385392,-134.79562832973897Z" fill="#808084" stroke="#808084"></path><path d="M1605.7376781385392,-134.79562832973897L1616.4765459042974,116.17105027427897L1631.9653354841284,349.3183354754001Z" fill="#768072" stroke="#768072"></path><path d="M-175.7661536964588,55.31140921404585L-167.22041330533102,1051.8909459072165L-154.18629333609715,411.0625727009028Z" fill="#9ad9ad" stroke="#9ad9ad"></path><path d="M-175.7661536964588,55.31140921404585L-154.18629333609715,411.0625727009028L65.58161700842902,75.48861399292946Z" fill="#e7ffe3" stroke="#e7ffe3"></path><path d="M65.58161700842902,75.48861399292946L-154.18629333609715,411.0625727009028L173.57763395877555,351.45855830283836Z" fill="#c4f5c1" stroke="#c4f5c1"></path><path d="M65.58161700842902,75.48861399292946L173.57763395877555,351.45855830283836L430.7963635912165,173.58660937054083Z" fill="#c3f2bc" stroke="#c3f2bc"></path><path d="M430.7963635912165,173.58660937054083L173.57763395877555,351.45855830283836L310.2572968136519,426.7142449412495Z" fill="#9ee59c" stroke="#9ee59c"></path><path d="M430.7963635912165,173.58660937054083L310.2572968136519,426.7142449412495L588.8651857268997,327.8074551397003Z" fill="#90df8f" stroke="#90df8f"></path><path d="M430.7963635912165,173.58660937054083L588.8651857268997,327.8074551397003L614.2569629475474,83.09560152003542Z" fill="#9fe29d" stroke="#9fe29d"></path><path d="M614.2569629475474,83.09560152003542L588.8651857268997,327.8074551397003L901.5184458321892,122.92440976481885Z" fill="#8dd795" stroke="#8dd795"></path><path d="M901.5184458321892,122.92440976481885L588.8651857268997,327.8074551397003L867.3607046459801,380.98611106630415Z" fill="#6dca7b" stroke="#6dca7b"></path><path d="M901.5184458321892,122.92440976481885L867.3607046459801,380.98611106630415L1126.7730786767788,106.54156029224396Z" fill="#6fbe7f" stroke="#6fbe7f"></path><path d="M1126.7730786767788,106.54156029224396L867.3607046459801,380.98611106630415L1147.1029112418182,428.59522133599967Z" fill="#4fab66" stroke="#4fab66"></path><path d="M1126.7730786767788,106.54156029224396L1147.1029112418182,428.59522133599967L1370.4250097670592,365.2808665554039Z" fill="#4b955f" stroke="#4b955f"></path><path d="M1126.7730786767788,106.54156029224396L1370.4250097670592,365.2808665554039L1389.492306013126,192.80534851597622Z" fill="#5f926a" stroke="#5f926a"></path><path d="M1389.492306013126,192.80534851597622L1370.4250097670592,365.2808665554039L1631.9653354841284,349.3183354754001Z" fill="#4b7751" stroke="#4b7751"></path><path d="M1389.492306013126,192.80534851597622L1631.9653354841284,349.3183354754001L1616.4765459042974,116.17105027427897Z" fill="#607f5e" stroke="#607f5e"></path><path d="M-154.18629333609715,411.0625727009028L-167.22041330533102,1051.8909459072165L-145.86487740045413,882.9830128792673Z" fill="#80918f" stroke="#80918f"></path><path d="M-154.18629333609715,411.0625727009028L-145.86487740045413,882.9830128792673L-119.66050033690408,657.8235380002297Z" fill="#80b59d" stroke="#80b59d"></path><path d="M-154.18629333609715,411.0625727009028L-119.66050033690408,657.8235380002297L130.05476515274495,576.1888808570802Z" fill="#8fcfa3" stroke="#8fcfa3"></path><path d="M-154.18629333609715,411.0625727009028L130.05476515274495,576.1888808570802L173.57763395877555,351.45855830283836Z" fill="#96dea5" stroke="#96dea5"></path><path d="M173.57763395877555,351.45855830283836L130.05476515274495,576.1888808570802L310.2572968136519,426.7142449412495Z" fill="#85d793" stroke="#85d793"></path><path d="M310.2572968136519,426.7142449412495L130.05476515274495,576.1888808570802L401.2106500938535,647.7910898742266Z" fill="#6dc17e" stroke="#6dc17e"></path><path d="M310.2572968136519,426.7142449412495L401.2106500938535,647.7910898742266L608.7069188710302,581.126479874365Z" fill="#5ab86e" stroke="#5ab86e"></path><path d="M310.2572968136519,426.7142449412495L608.7069188710302,581.126479874365L588.8651857268997,327.8074551397003Z" fill="#64c976" stroke="#64c976"></path><path d="M588.8651857268997,327.8074551397003L608.7069188710302,581.126479874365L867.3607046459801,380.98611106630415Z" fill="#4ebf6a" stroke="#4ebf6a"></path><path d="M867.3607046459801,380.98611106630415L608.7069188710302,581.126479874365L836.1174249881878,591.0381055204198Z" fill="#36a958" stroke="#36a958"></path><path d="M867.3607046459801,380.98611106630415L836.1174249881878,591.0381055204198L1147.1029112418182,428.59522133599967Z" fill="#2fa154" stroke="#2fa154"></path><path d="M1147.1029112418182,428.59522133599967L836.1174249881878,591.0381055204198L1118.6988952173851,629.6445372747257Z" fill="#198645" stroke="#198645"></path><path d="M1147.1029112418182,428.59522133599967L1118.6988952173851,629.6445372747257L1358.8581977575086,568.0576210375875Z" fill="#15713c" stroke="#15713c"></path><path d="M1147.1029112418182,428.59522133599967L1358.8581977575086,568.0576210375875L1370.4250097670592,365.2808665554039Z" fill="#237644" stroke="#237644"></path><path d="M1370.4250097670592,365.2808665554039L1358.8581977575086,568.0576210375875L1631.9653354841284,349.3183354754001Z" fill="#28673f" stroke="#28673f"></path><path d="M1631.9653354841284,349.3183354754001L1358.8581977575086,568.0576210375875L1551.894047835376,672.8942343732342Z" fill="#17552e" stroke="#17552e"></path><path d="M1631.9653354841284,349.3183354754001L1551.894047835376,672.8942343732342L1589.9001210951246,887.3876739386469Z" fill="#03391f" stroke="#03391f"></path><path d="M1631.9653354841284,349.3183354754001L1589.9001210951246,887.3876739386469L1631.8945729080588,1106.882407371886Z" fill="#001210" stroke="#001210"></path><path d="M-119.66050033690408,657.8235380002297L-145.86487740045413,882.9830128792673L138.66834276588634,885.9971562260762Z" fill="#7b8886" stroke="#7b8886"></path><path d="M-119.66050033690408,657.8235380002297L138.66834276588634,885.9971562260762L130.05476515274495,576.1888808570802Z" fill="#72a087" stroke="#72a087"></path><path d="M130.05476515274495,576.1888808570802L138.66834276588634,885.9971562260762L401.2106500938535,647.7910898742266Z" fill="#609a74" stroke="#609a74"></path><path d="M401.2106500938535,647.7910898742266L138.66834276588634,885.9971562260762L422.73719498421997,808.0051899631508Z" fill="#558162" stroke="#558162"></path><path d="M401.2106500938535,647.7910898742266L422.73719498421997,808.0051899631508L536.6101378225721,806.1803639028221Z" fill="#468157" stroke="#468157"></path><path d="M401.2106500938535,647.7910898742266L536.6101378225721,806.1803639028221L608.7069188710302,581.126479874365Z" fill="#3e9259" stroke="#3e9259"></path><path d="M608.7069188710302,581.126479874365L536.6101378225721,806.1803639028221L816.227161672432,829.9773215060122Z" fill="#2c7848" stroke="#2c7848"></path><path d="M608.7069188710302,581.126479874365L816.227161672432,829.9773215060122L836.1174249881878,591.0381055204198Z" fill="#1f8449" stroke="#1f8449"></path><path d="M836.1174249881878,591.0381055204198L816.227161672432,829.9773215060122L1098.8360197353177,774.3406657339074Z" fill="#116438" stroke="#116438"></path><path d="M836.1174249881878,591.0381055204198L1098.8360197353177,774.3406657339074L1118.6988952173851,629.6445372747257Z" fill="#086939" stroke="#086939"></path><path d="M1118.6988952173851,629.6445372747257L1098.8360197353177,774.3406657339074L1361.3616366684437,786.4803728624247Z" fill="#004029" stroke="#004029"></path><path d="M1118.6988952173851,629.6445372747257L1361.3616366684437,786.4803728624247L1358.8581977575086,568.0576210375875Z" fill="#00472c" stroke="#00472c"></path><path d="M1358.8581977575086,568.0576210375875L1361.3616366684437,786.4803728624247L1551.894047835376,672.8942343732342Z" fill="#003023" stroke="#003023"></path><path d="M1551.894047835376,672.8942343732342L1361.3616366684437,786.4803728624247L1589.9001210951246,887.3876739386469Z" fill="#001214" stroke="#001214"></path><path d="M-145.86487740045413,882.9830128792673L-167.22041330533102,1051.8909459072165L50.5627053254284,1099.3684438825585Z" fill="#80807f" stroke="#80807f"></path><path d="M-145.86487740045413,882.9830128792673L50.5627053254284,1099.3684438825585L138.66834276588634,885.9971562260762Z" fill="#757c73" stroke="#757c73"></path><path d="M138.66834276588634,885.9971562260762L50.5627053254284,1099.3684438825585L422.6664513722062,1094.0490053105168Z" fill="#62745e" stroke="#62745e"></path><path d="M138.66834276588634,885.9971562260762L422.6664513722062,1094.0490053105168L422.73719498421997,808.0051899631508Z" fill="#556e52" stroke="#556e52"></path><path d="M422.73719498421997,808.0051899631508L422.6664513722062,1094.0490053105168L536.6101378225721,806.1803639028221Z" fill="#456747" stroke="#456747"></path><path d="M536.6101378225721,806.1803639028221L422.6664513722062,1094.0490053105168L551.5067164669745,1146.8616267386824Z" fill="#406540" stroke="#406540"></path><path d="M536.6101378225721,806.1803639028221L551.5067164669745,1146.8616267386824L847.7471720986068,1050.5422973027453Z" fill="#2d5c35" stroke="#2d5c35"></path><path d="M536.6101378225721,806.1803639028221L847.7471720986068,1050.5422973027453L816.227161672432,829.9773215060122Z" fill="#215632" stroke="#215632"></path><path d="M816.227161672432,829.9773215060122L847.7471720986068,1050.5422973027453L1098.8360197353177,774.3406657339074Z" fill="#114527" stroke="#114527"></path><path d="M1098.8360197353177,774.3406657339074L847.7471720986068,1050.5422973027453L1141.8005412979983,1021.1239661858417Z" fill="#07361d" stroke="#07361d"></path><path d="M1098.8360197353177,774.3406657339074L1141.8005412979983,1021.1239661858417L1288.4260933776386,1028.2401659013703Z" fill="#002315" stroke="#002315"></path><path d="M1098.8360197353177,774.3406657339074L1288.4260933776386,1028.2401659013703L1361.3616366684437,786.4803728624247Z" fill="#001918" stroke="#001918"></path><path d="M1361.3616366684437,786.4803728624247L1288.4260933776386,1028.2401659013703L1589.9001210951246,887.3876739386469Z" fill="#00030c" stroke="#00030c"></path><path d="M1589.9001210951246,887.3876739386469L1288.4260933776386,1028.2401659013703L1631.8945729080588,1106.882407371886Z" fill="#000004" stroke="#000004"></path><path d="M50.5627053254284,1099.3684438825585L551.5067164669745,1146.8616267386824L422.6664513722062,1094.0490053105168Z" fill="#536e50" stroke="#536e50"></path><path d="M551.5067164669745,1146.8616267386824L1631.8945729080588,1106.882407371886L1141.8005412979983,1021.1239661858417Z" fill="#002c19" stroke="#002c19"></path><path d="M551.5067164669745,1146.8616267386824L1141.8005412979983,1021.1239661858417L847.7471720986068,1050.5422973027453Z" fill="#174c27" stroke="#174c27"></path><path d="M1141.8005412979983,1021.1239661858417L1631.8945729080588,1106.882407371886L1288.4260933776386,1028.2401659013703Z" fill="#000b0c" stroke="#000b0c"></path></g></svg>